<svg width="48" height="48" viewBox="0 0 48 48" fill="none" xmlns="http://www.w3.org/2000/svg">
<path d="M42.75 8.99995V18C42.75 18.5967 42.5129 19.169 42.091 19.5909C41.669 20.0129 41.0967 20.25 40.5 20.25H31.5C30.9033 20.25 30.331 20.0129 29.909 19.5909C29.4871 19.169 29.25 18.5967 29.25 18C29.25 17.4032 29.4871 16.8309 29.909 16.409C30.331 15.987 30.9033 15.75 31.5 15.75H35.0625L33.6 14.2875C30.9522 11.6265 27.3564 10.1253 23.6025 10.1137H23.5219C19.8015 10.1056 16.2275 11.5625 13.5731 14.1693C13.1465 14.5865 12.5715 14.8172 11.9748 14.8105C11.3781 14.8038 10.8085 14.5604 10.3912 14.1337C9.97403 13.707 9.74339 13.1321 9.75007 12.5354C9.75676 11.9387 10.0002 11.369 10.4269 10.9518C13.9223 7.51955 18.6287 5.60182 23.5275 5.6137H23.625C28.567 5.62718 33.3014 7.60255 36.7875 11.1056L38.25 12.5625V8.99995C38.25 8.40321 38.4871 7.83092 38.909 7.40896C39.331 6.987 39.9033 6.74995 40.5 6.74995C41.0967 6.74995 41.669 6.987 42.091 7.40896C42.5129 7.83092 42.75 8.40321 42.75 8.99995ZM34.4269 33.8306C31.7711 36.4388 28.1948 37.8958 24.4725 37.8862H24.3919C20.638 37.8746 17.0422 36.3734 14.3944 33.7124L12.9375 32.2499H16.5C17.0967 32.2499 17.669 32.0129 18.091 31.5909C18.5129 31.169 18.75 30.5967 18.75 29.9999C18.75 29.4032 18.5129 28.8309 18.091 28.409C17.669 27.987 17.0967 27.75 16.5 27.75H7.5C6.90326 27.75 6.33097 27.987 5.90901 28.409C5.48705 28.8309 5.25 29.4032 5.25 29.9999V38.9999C5.25 39.5967 5.48705 40.169 5.90901 40.5909C6.33097 41.0129 6.90326 41.2499 7.5 41.2499C8.09674 41.2499 8.66903 41.0129 9.09099 40.5909C9.51295 40.169 9.75 39.5967 9.75 38.9999V35.4374L11.2125 36.8999C14.6995 40.4009 19.4338 42.3742 24.375 42.3862H24.48C29.3788 42.3981 34.0852 40.4803 37.5806 37.0481C37.7919 36.8415 37.9604 36.5953 38.0765 36.3236C38.1926 36.0519 38.2541 35.76 38.2574 35.4645C38.2607 35.169 38.2058 34.8758 38.0958 34.6016C37.9858 34.3273 37.8228 34.0775 37.6162 33.8662C37.4097 33.6549 37.1635 33.4864 36.8918 33.3703C36.6201 33.2542 36.3282 33.1927 36.0327 33.1894C35.7372 33.1861 35.444 33.241 35.1698 33.351C34.8955 33.461 34.6456 33.624 34.4344 33.8306H34.4269Z" fill="black"/>
</svg>
